<svg version="1.1" id="Layer_1" xmlns="http://www.w3.org/2000/svg" xmlns:xlink="http://www.w3.org/1999/xlink" x="0px" y="0px"
	 width="100%" viewBox="0 0 354 354" enable-background="new 0 0 354 354" xml:space="preserve">
<path fill="#FEFEFE" opacity="1.000000" stroke="none" 
	d="
M196.000000,355.000000 
	C130.666672,355.000000 65.833359,355.000000 1.000026,355.000000 
	C1.000017,237.000031 1.000017,119.000069 1.000009,1.000074 
	C118.999947,1.000049 236.999893,1.000049 354.999878,1.000025 
	C354.999939,118.999931 354.999939,236.999863 354.999969,354.999878 
	C302.166656,355.000000 249.333328,355.000000 196.000000,355.000000 
M288.818970,266.296234 
	C285.156433,261.751923 285.059875,260.529541 288.351471,258.159363 
	C289.029205,260.232391 289.687805,262.246826 290.346405,264.261292 
	C290.827637,264.153015 291.308868,264.044739 291.790100,263.936432 
	C291.790100,262.732941 291.962372,261.498810 291.755005,260.332123 
	C291.292999,257.732422 290.173309,254.901260 287.083771,256.212860 
	C285.469330,256.898285 283.743042,259.994537 283.990143,261.727814 
	C284.314392,264.002075 286.535645,266.005859 288.184357,268.797211 
	C289.673187,271.219452 290.957672,273.634247 287.567383,276.677368 
	C286.670593,274.001099 285.974182,271.922729 285.277740,269.844330 
	C284.142151,271.121918 283.843109,272.291931 283.887604,273.448730 
	C283.999420,276.356049 285.473328,278.714386 288.459229,277.798737 
	C290.016357,277.321289 291.791046,274.630341 291.830872,272.901459 
	C291.876068,270.940491 290.090607,268.937317 288.818970,266.296234 
M162.184357,268.797180 
	C163.673126,271.219421 164.957672,273.634216 161.567383,276.677368 
	C160.670624,274.001129 159.974182,271.922729 159.277740,269.844330 
	C158.142227,271.121887 157.843170,272.291870 157.887650,273.448639 
	C157.999435,276.355927 159.473190,278.714355 162.459198,277.798767 
	C164.016281,277.321320 165.791031,274.630432 165.830872,272.901581 
	C165.876053,270.940582 164.090652,268.937408 162.819046,266.296295 
	C159.156448,261.751984 159.059891,260.529694 162.351501,258.159180 
	C163.029205,260.232300 163.687744,262.246796 164.346283,264.261292 
	C164.827560,264.153015 165.308823,264.044739 165.790100,263.936432 
	C165.790100,262.732971 165.962357,261.498871 165.755020,260.332214 
	C165.292999,257.732544 164.173416,254.901276 161.083878,256.212921 
	C159.469421,256.898315 157.743073,259.994507 157.990143,261.727753 
	C158.314346,264.001984 160.535629,266.005829 162.184357,268.797180 
M67.608841,275.008087 
	C67.578308,275.475372 67.547775,275.942657 67.517242,276.409943 
	C67.686256,276.359924 67.947762,276.362091 68.010002,276.251831 
	C68.640701,275.134338 69.585381,274.056427 69.785858,272.857697 
	C70.633766,267.787872 71.290901,262.684631 71.915314,257.581085 
	C71.983002,257.027893 71.387283,256.393555 70.798752,255.174179 
	C69.402924,259.911835 68.228790,263.897003 67.043510,267.015686 
	C66.431099,263.299225 66.789978,259.316833 64.324615,256.068909 
	C64.251846,260.934174 64.824532,265.652008 65.598251,270.336670 
	C65.838280,271.789978 66.623955,273.153137 67.608841,275.008087 
M227.608810,275.008087 
	C227.578293,275.475372 227.547760,275.942657 227.517227,276.409943 
	C227.686264,276.359924 227.947784,276.362122 228.010040,276.251831 
	C228.640732,275.134338 229.585358,274.056427 229.785843,272.857666 
	C230.633743,267.787842 231.290924,262.684631 231.915344,257.581085 
	C231.983032,257.027924 231.387268,256.393555 230.798721,255.174240 
	C229.402557,259.912994 228.228607,263.897583 227.043503,267.015656 
	C226.431061,263.299225 226.790024,259.316833 224.534958,256.032440 
	C223.922119,256.635406 223.762085,257.118195 223.821304,257.572388 
	C224.376877,261.832458 224.885895,266.101776 225.598495,270.336426 
	C225.843079,271.789917 226.623901,273.153168 227.608810,275.008087 
M239.576187,43.230305 
	C246.584839,49.073505 254.407883,54.183067 260.453430,60.893898 
	C280.700043,83.368431 270.287079,108.691574 255.347076,121.553261 
	C227.128067,145.846649 193.513931,156.016037 157.045151,157.895203 
	C128.203186,159.381363 99.935150,155.300491 72.177605,147.470245 
	C70.709129,147.056000 69.135582,147.014206 67.363800,146.764130 
	C67.594780,147.490982 67.602974,147.753845 67.701668,147.793915 
	C108.182404,164.239212 149.874146,170.847687 193.267044,162.911423 
	C218.915817,158.220444 243.053207,149.463989 264.404144,134.227402 
	C288.396606,117.105766 291.902618,89.032082 273.178101,66.357330 
	C264.219543,55.508865 252.664825,48.041691 239.732452,41.426003 
	C238.022095,37.904533 234.505676,37.454647 229.996674,36.656456 
	C233.065094,33.894817 235.353333,31.835346 238.603668,28.909979 
	C230.202011,28.947826 224.114807,36.702354 217.485260,32.371185 
	C220.782745,37.149071 224.398758,42.388458 228.184235,47.873398 
	C228.184235,45.056633 228.184235,42.459286 228.184235,38.373718 
	C231.055023,40.611042 233.050903,42.166512 235.046783,43.721981 
	C235.023605,43.409966 235.000427,43.097950 234.977234,42.785934 
	C236.335602,42.785934 237.693954,42.785934 239.576187,43.230305 
M230.171036,128.591934 
	C231.422180,126.526543 233.597961,124.528450 233.754105,122.383347 
	C234.257690,115.465141 234.885208,108.368782 233.912369,101.563026 
	C229.910812,73.569305 202.774582,51.757980 175.548447,54.365467 
	C152.665863,56.556961 136.185089,68.312447 127.424980,89.485855 
	C118.852280,110.206299 122.013847,129.922073 135.761017,147.676819 
	C137.099335,149.405273 140.215790,150.960312 142.293793,150.723785 
	C160.101685,148.696945 177.958099,146.797699 195.600403,143.717148 
	C207.889069,141.571411 219.642609,137.121674 230.171036,128.591934 
M62.626358,232.475189 
	C62.626358,236.600021 62.626358,240.724838 62.626358,245.176132 
	C66.813324,245.176132 70.759697,245.826904 74.332947,244.952652 
	C76.810417,244.346497 80.156898,241.996719 80.721947,239.808151 
	C82.891502,231.404816 83.683754,222.786133 78.988083,214.759109 
	C82.633530,208.256226 82.266724,201.225967 80.522583,194.472763 
	C79.958588,192.289017 76.595711,189.961533 74.107162,189.348892 
	C70.565712,188.477036 66.649536,189.127319 62.626404,189.127319 
	C62.626404,203.533798 62.626404,217.508118 62.626358,232.475189 
M164.494995,219.494690 
	C164.643906,224.984253 164.576370,230.490402 164.995575,235.959259 
	C165.541367,243.079880 168.658234,246.059204 174.826019,245.986389 
	C180.766388,245.916260 183.916138,243.042740 184.101166,236.049530 
	C184.439896,223.246643 184.430115,210.423996 184.139145,197.619278 
	C183.988693,190.998169 180.756516,188.084778 175.032120,188.083054 
	C169.017075,188.081253 165.481277,191.128326 165.040009,197.538681 
	C164.560501,204.504303 164.652344,211.509262 164.494995,219.494690 
M217.929916,235.091461 
	C217.754883,238.404022 217.415497,241.792099 212.966797,241.631561 
	C208.564346,241.472702 208.548706,237.806198 208.200058,234.695480 
	C207.978638,232.719803 208.085281,230.704788 208.084183,228.707397 
	C208.076965,215.591858 208.080460,202.476318 208.080460,188.976212 
	C206.154617,189.080551 204.649719,189.162079 203.108017,189.245621 
	C203.108017,203.937897 203.057938,218.083694 203.155441,232.228485 
	C203.172440,234.696106 203.681061,237.186798 204.192291,239.618530 
	C205.011047,243.513000 207.539337,245.542847 211.508133,245.926971 
	C218.311096,246.585388 222.505112,244.009003 222.730286,237.057663 
	C223.245605,221.149719 222.893250,205.213669 222.893250,188.965714 
	C221.119110,189.060730 219.596313,189.142288 217.955551,189.230148 
	C217.955551,204.544373 217.955551,219.355865 217.929916,235.091461 
M119.711990,234.601929 
	C117.030655,219.440887 114.349312,204.279846 111.631218,188.910950 
	C109.628471,189.031769 108.032829,189.128036 106.349190,189.229599 
	C103.329231,207.993683 100.360619,226.438736 97.315750,245.357544 
	C99.417404,245.189636 100.802528,245.078964 102.170006,244.969711 
	C102.864563,241.055588 103.489296,237.534927 104.096336,234.113983 
	C107.908058,234.113983 111.199097,234.113983 113.951065,234.113983 
	C117.671501,237.165405 112.745850,245.163879 121.486710,245.327866 
	C120.877701,241.624207 120.369011,238.530624 119.711990,234.601929 
M291.106323,241.798996 
	C288.005371,224.213806 284.904419,206.628601 281.773987,188.876221 
	C279.700439,189.029297 278.115784,189.146286 276.427948,189.270905 
	C273.476593,208.038437 270.577942,226.471039 267.590393,245.468918 
	C276.436157,244.870041 270.974670,236.687195 274.920715,234.138397 
	C278.104950,234.138397 281.393311,234.138397 284.832306,234.138397 
	C285.527222,237.850815 286.190521,241.394409 287.126495,246.394562 
	C288.259949,243.731369 292.480164,248.050003 291.106323,241.798996 
M249.649826,218.500168 
	C249.649826,210.201431 249.649826,201.902710 249.649826,193.671326 
	C254.744232,192.797226 254.744232,192.797226 254.516617,189.150909 
	C249.422745,189.150909 244.315140,189.150909 239.035583,189.150909 
	C239.035583,190.474808 239.035583,191.698425 239.035583,192.905975 
	C240.946320,193.058243 242.571091,193.187729 244.573273,193.347275 
	C244.573273,210.648010 244.573273,227.734512 244.573273,245.302109 
	C246.528030,245.194519 248.056107,245.110397 249.649811,245.022675 
	C249.649811,236.155228 249.649811,227.827713 249.649826,218.500168 
M144.107086,231.490875 
	C144.107086,218.735794 144.107086,205.980698 144.107086,193.291412 
	C146.992554,192.828003 150.749741,193.989120 148.879807,189.197632 
	C143.746674,189.197632 138.642517,189.197632 133.540970,189.197632 
	C131.749649,195.238190 137.189941,191.929092 139.111084,193.907196 
	C139.111084,210.615585 139.111084,227.706223 139.111084,245.036835 
	C140.894089,245.036835 142.313797,245.036835 144.107086,245.036835 
	C144.107086,240.744751 144.107086,236.614716 144.107086,231.490875 
M188.076996,277.799683 
	C189.442764,276.433899 191.259979,275.287933 192.059418,273.646362 
	C193.046967,271.618530 193.188736,269.178833 193.862198,266.175842 
	C192.332642,267.490051 191.381973,268.306885 190.430634,269.124298 
	C188.446381,266.407501 188.005219,264.035126 190.194168,261.071747 
	C191.299911,259.574799 191.407501,256.951385 191.115845,254.962036 
	C190.949432,253.826965 189.036179,252.104660 187.973740,252.150085 
	C186.528778,252.211838 184.475769,253.410904 183.911316,254.671860 
	C183.262070,256.122314 183.506760,258.358429 184.158249,259.922028 
	C185.361633,262.810120 185.086655,264.859680 183.215530,267.567047 
	C179.712387,272.635773 181.827362,277.343597 188.076996,277.799683 
M257.050049,266.604919 
	C257.050079,265.110687 256.805267,263.562439 257.119629,262.137543 
	C257.428528,260.737549 258.305328,259.462860 258.932922,258.133179 
	C259.664917,259.530396 260.898438,260.882599 261.028839,262.333862 
	C261.339569,265.792480 261.092010,269.298492 261.145111,272.784210 
	C261.172211,274.563843 261.361206,276.341003 261.477020,278.119263 
	C262.223083,278.112946 262.969116,278.106659 263.715179,278.100342 
	C263.715179,274.486664 263.864899,270.864960 263.671967,267.261627 
	C263.488556,263.836426 263.511444,260.199921 262.262024,257.138611 
	C261.813599,256.039917 257.920410,256.329468 255.592545,256.040527 
	C255.336349,256.008759 255.034912,256.341400 255.358643,256.152527 
	C255.358643,263.690002 255.358643,270.863281 255.358643,278.036591 
	C255.922440,278.025452 256.486237,278.014313 257.050049,278.003143 
	C257.050049,274.522186 257.050049,271.041229 257.050049,266.604919 
M77.992546,266.533417 
	C78.117638,269.185669 77.798271,271.970490 78.534935,274.440338 
	C78.975082,275.915985 81.044075,277.804108 82.428719,277.843903 
	C83.779068,277.882751 86.273727,275.900848 86.384743,274.640442 
	C86.833702,269.542999 86.825485,264.356781 86.354256,259.261780 
	C86.240021,258.026703 83.784988,256.279510 82.277344,256.137512 
	C81.116852,256.028229 79.149513,257.835571 78.626625,259.205139 
	C77.889503,261.135773 78.155495,263.449432 77.992546,266.533417 
M147.700882,274.990082 
	C146.778900,274.772919 145.113083,274.674835 145.056137,274.319214 
	C144.698425,272.084839 144.698715,269.793152 144.568542,267.287659 
	C146.716034,267.131500 148.467758,267.004120 150.416626,266.862366 
	C150.416626,264.470612 150.905594,262.185974 150.269287,260.276306 
	C149.712524,258.605286 147.890793,257.355713 146.627884,255.919998 
	C145.167679,257.385895 142.664749,258.713379 142.448212,260.344360 
	C141.863892,264.745514 141.966843,269.304749 142.412994,273.739288 
	C142.567612,275.276062 144.280930,277.142761 145.766708,277.872345 
	C146.628448,278.295502 149.360138,277.029602 149.656799,276.044098 
	C150.278061,273.980225 149.845184,271.599060 149.845184,269.348175 
	C149.337891,269.382751 148.830612,269.417328 148.323318,269.451874 
	C148.196732,271.030823 148.070129,272.609741 147.700882,274.990082 
M246.401733,272.484955 
	C246.080292,271.403961 245.758850,270.322968 245.437408,269.241974 
	C245.154449,269.346100 244.871490,269.450226 244.588531,269.554352 
	C244.054626,271.738373 243.520706,273.922394 242.986801,276.106415 
	C242.333313,275.979370 241.679825,275.852325 241.026352,275.725281 
	C240.883301,272.927246 240.740265,270.129181 240.593719,267.262848 
	C242.902237,267.109070 244.520126,267.001282 246.434860,266.873718 
	C246.434860,264.578522 246.912262,262.306854 246.291824,260.390686 
	C245.742920,258.695404 243.971756,257.395874 242.740204,255.921616 
	C241.246704,257.351990 238.704346,258.626190 238.463638,260.243103 
	C237.834167,264.471313 237.836212,268.895966 238.365356,273.145325 
	C238.585800,274.915527 240.515076,277.425598 242.138718,277.867584 
	C245.396576,278.754456 246.198837,275.976135 246.401733,272.484955 
M128.122818,279.792145 
	C127.526894,279.805634 126.930977,279.819122 126.335052,279.832611 
	C126.643341,280.461517 126.786079,281.403870 127.286850,281.668365 
	C130.481003,283.355621 133.856216,281.516602 133.993805,277.651276 
	C134.246994,270.537933 134.066071,263.409119 134.066071,256.300476 
	C126.687393,256.120453 125.932396,256.806610 125.742828,263.848419 
	C125.675652,266.344116 125.819733,268.844788 125.817558,271.343140 
	C125.814026,275.384460 127.185402,277.938416 132.276688,276.603455 
	C132.294174,277.027954 132.311646,277.452454 132.329132,277.876953 
	C131.169785,278.566467 130.010452,279.256012 128.122818,279.792145 
M216.536880,269.666626 
	C215.431732,271.785583 214.326584,273.904572 213.221436,276.023560 
	C212.745789,276.031921 212.270142,276.040253 211.794495,276.048615 
	C211.469299,273.124268 211.144104,270.199921 210.816406,267.253052 
	C213.387909,267.037140 215.136475,266.890320 216.810165,266.749786 
	C216.810165,264.048340 217.240448,261.614532 216.654373,259.456787 
	C216.282150,258.086334 214.284286,256.107391 213.221207,256.227234 
	C211.723984,256.395966 209.328812,258.161682 209.219894,259.410431 
	C208.773987,264.522827 208.822723,269.716553 209.235245,274.836365 
	C209.328064,275.988342 211.628601,277.800507 212.895432,277.786041 
	C214.184052,277.771332 215.849487,276.098297 216.606354,274.737823 
	C217.254669,273.572510 216.851578,271.822266 216.536880,269.666626 
M115.214272,256.079407 
	C109.871590,256.414032 108.639580,258.532501 111.158401,263.876038 
	C111.910324,261.678345 112.568794,259.753784 113.636871,256.632019 
	C116.009621,260.866852 117.336761,263.453461 112.939140,265.306458 
	C109.011223,266.961548 108.580788,270.195587 109.189354,273.959198 
	C110.133064,279.795471 114.433281,277.303925 117.971527,277.616302 
	C117.971527,272.427155 118.151604,267.317444 117.881126,262.231689 
	C117.775894,260.252899 116.654602,258.328186 115.214272,256.079407 
M96.181717,279.953644 
	C95.840279,280.563385 95.498840,281.173126 95.157402,281.782867 
	C96.488571,281.131714 98.806686,280.682373 98.987907,279.796051 
	C100.026810,274.714996 100.598679,269.535309 101.245811,264.378632 
	C101.590042,261.635651 101.766464,258.871643 102.018631,256.117096 
	C101.485458,256.065918 100.952286,256.014740 100.419113,255.963531 
	C99.846153,260.476959 99.273186,264.990356 98.700226,269.503784 
	C98.420860,269.557190 98.141495,269.610596 97.862129,269.664032 
	C97.095467,265.061920 96.328796,260.459839 95.562134,255.857758 
	C95.021294,255.960922 94.480461,256.064087 93.939621,256.167267 
	C94.095154,257.865082 94.192047,259.570679 94.416740,261.259277 
	C95.235107,267.409515 96.096176,273.554047 96.181717,279.953644 
M272.007019,265.595032 
	C272.008545,268.586700 271.869568,271.586792 272.047760,274.567902 
	C272.262848,278.166809 273.258881,278.587097 276.966034,276.976624 
	C273.580322,273.922302 273.560333,259.960358 276.813660,257.209656 
	C275.613586,255.312027 274.504211,253.557816 273.123352,251.374298 
	C272.002167,253.814545 270.487030,255.716721 270.390289,257.688477 
	C270.278229,259.971985 271.413330,262.316742 272.007019,265.595032 
z"/>
<path opacity="1.000000" stroke="none" 
	d="
M229.889664,128.827332 
	C219.642609,137.121674 207.889069,141.571411 195.600403,143.717148 
	C177.958099,146.797699 160.101685,148.696945 142.293793,150.723785 
	C140.215790,150.960312 137.099335,149.405273 135.761017,147.676819 
	C122.013847,129.922073 118.852280,110.206299 127.424980,89.485855 
	C136.185089,68.312447 152.665863,56.556961 175.548447,54.365467 
	C202.774582,51.757980 229.910812,73.569305 233.912369,101.563026 
	C234.885208,108.368782 234.257690,115.465141 233.754105,122.383347 
	C233.597961,124.528450 231.422180,126.526543 229.889664,128.827332 
z"/>
<path  opacity="1.000000" stroke="none" 
	d="
M240.156708,41.925262 
	C252.664825,48.041691 264.219543,55.508865 273.178101,66.357330 
	C291.902618,89.032082 288.396606,117.105766 264.404144,134.227402 
	C243.053207,149.463989 218.915817,158.220444 193.267044,162.911423 
	C149.874146,170.847687 108.182404,164.239212 67.701668,147.793915 
	C67.602974,147.753845 67.594780,147.490982 67.363800,146.764130 
	C69.135582,147.014206 70.709129,147.056000 72.177605,147.470245 
	C99.935150,155.300491 128.203186,159.381363 157.045151,157.895203 
	C193.513931,156.016037 227.128067,145.846649 255.347076,121.553261 
	C270.287079,108.691574 280.700043,83.368431 260.453430,60.893898 
	C254.407883,54.183067 246.584839,49.073505 239.453964,42.814072 
	C239.570511,42.177097 239.845490,42.019573 240.156708,41.925262 
z"/>
<path  opacity="1.000000" stroke="none" 
	d="
M62.626381,231.978821 
	C62.626404,217.508118 62.626404,203.533798 62.626404,189.127319 
	C66.649536,189.127319 70.565712,188.477036 74.107162,189.348892 
	C76.595711,189.961533 79.958588,192.289017 80.522583,194.472763 
	C82.266724,201.225967 82.633530,208.256226 78.988083,214.759109 
	C83.683754,222.786133 82.891502,231.404816 80.721947,239.808151 
	C80.156898,241.996719 76.810417,244.346497 74.332947,244.952652 
	C70.759697,245.826904 66.813324,245.176132 62.626358,245.176132 
	C62.626358,240.724838 62.626358,236.600021 62.626381,231.978821 
M77.109390,228.531021 
	C77.097092,227.207199 77.124603,225.881607 77.065804,224.559860 
	C76.764709,217.791199 74.908676,216.376358 68.127884,217.689224 
	C68.127884,225.400391 68.127884,233.104034 68.127884,240.787460 
	C75.680763,241.113052 76.801498,240.095306 77.048782,232.942169 
	C77.088799,231.784637 77.090004,230.625763 77.109390,228.531021 
M74.694069,194.585617 
	C72.554855,194.173172 70.415649,193.760727 68.149048,193.323730 
	C68.149048,200.361725 68.149048,206.575897 68.149048,212.768295 
	C74.701462,213.048569 75.724884,212.822601 75.842934,209.577148 
	C76.015045,204.845703 75.453568,200.087540 74.694069,194.585617 
z"/>
<path  opacity="1.000000" stroke="none" 
	d="
M164.495026,218.995880 
	C164.652344,211.509262 164.560501,204.504303 165.040009,197.538681 
	C165.481277,191.128326 169.017075,188.081253 175.032120,188.083054 
	C180.756516,188.084778 183.988693,190.998169 184.139145,197.619278 
	C184.430115,210.423996 184.439896,223.246643 184.101166,236.049530 
	C183.916138,243.042740 180.766388,245.916260 174.826019,245.986389 
	C168.658234,246.059204 165.541367,243.079880 164.995575,235.959259 
	C164.576370,230.490402 164.643906,224.984253 164.495026,218.995880 
M170.065353,236.912247 
	C170.745316,239.722214 172.137863,242.538376 175.312027,241.356323 
	C177.036514,240.714111 178.913818,237.752625 178.965118,235.791336 
	C179.291367,223.316483 179.131027,210.828812 179.116531,198.345383 
	C179.115768,197.683060 179.221512,196.825958 178.868317,196.395126 
	C177.796860,195.088120 176.537598,192.997452 175.326447,192.980301 
	C173.818207,192.958939 171.807922,194.387451 170.896683,195.770966 
	C169.984497,197.155945 169.905014,199.256241 169.899384,201.044373 
	C169.862732,212.698456 169.945496,224.352905 170.065353,236.912247 
z"/>
<path  opacity="1.000000" stroke="none" 
	d="
M217.942734,234.629410 
	C217.955551,219.355865 217.955551,204.544373 217.955551,189.230148 
	C219.596313,189.142288 221.119110,189.060730 222.893250,188.965714 
	C222.893250,205.213669 223.245605,221.149719 222.730286,237.057663 
	C222.505112,244.009003 218.311096,246.585388 211.508133,245.926971 
	C207.539337,245.542847 205.011047,243.513000 204.192291,239.618530 
	C203.681061,237.186798 203.172440,234.696106 203.155441,232.228485 
	C203.057938,218.083694 203.108017,203.937897 203.108017,189.245621 
	C204.649719,189.162079 206.154617,189.080551 208.080460,188.976212 
	C208.080460,202.476318 208.076965,215.591858 208.084183,228.707397 
	C208.085281,230.704788 207.978638,232.719803 208.200058,234.695480 
	C208.548706,237.806198 208.564346,241.472702 212.966797,241.631561 
	C217.415497,241.792099 217.754883,238.404022 217.942734,234.629410 
z"/>
<path  opacity="1.000000" stroke="none" 
	d="
M119.786156,235.019470 
	C120.369011,238.530624 120.877701,241.624207 121.486710,245.327866 
	C112.745850,245.163879 117.671501,237.165405 113.951065,234.113983 
	C111.199097,234.113983 107.908058,234.113983 104.096336,234.113983 
	C103.489296,237.534927 102.864563,241.055588 102.170006,244.969711 
	C100.802528,245.078964 99.417404,245.189636 97.315750,245.357544 
	C100.360619,226.438736 103.329231,207.993683 106.349190,189.229599 
	C108.032829,189.128036 109.628471,189.031769 111.631218,188.910950 
	C114.349312,204.279846 117.030655,219.440887 119.786156,235.019470 
M113.960350,228.387833 
	C112.510262,219.880264 111.060181,211.372696 109.610092,202.865143 
	C109.208145,202.950562 108.806198,203.035995 108.404243,203.121429 
	C107.190155,211.841690 105.976067,220.561951 104.679886,229.871811 
	C108.219894,229.618484 110.973923,229.421417 113.960350,228.387833 
z"/>
<path  opacity="1.000000" stroke="none" 
	d="
M291.176544,242.186432 
	C292.480164,248.050003 288.259949,243.731369 287.126495,246.394562 
	C286.190521,241.394409 285.527222,237.850815 284.832306,234.138397 
	C281.393311,234.138397 278.104950,234.138397 274.920715,234.138397 
	C270.974670,236.687195 276.436157,244.870041 267.590393,245.468918 
	C270.577942,226.471039 273.476593,208.038437 276.427948,189.270905 
	C278.115784,189.146286 279.700439,189.029297 281.773987,188.876221 
	C284.904419,206.628601 288.005371,224.213806 291.176544,242.186432 
M279.935638,202.502823 
	C279.671356,202.228699 279.407074,201.954590 279.142792,201.680466 
	C279.094360,201.839005 279.029144,201.994522 278.999878,202.156525 
	C278.412170,205.412659 277.745453,208.657272 277.262451,211.928970 
	C276.407532,217.719391 275.664825,223.526367 274.862061,229.422729 
	C278.299469,229.422729 281.047089,229.422729 284.178436,229.422729 
	C282.753693,220.475662 281.378845,211.841934 279.935638,202.502823 
z"/>
<path  opacity="1.000000" stroke="none" 
	d="
M249.649811,219.000183 
	C249.649811,227.827713 249.649811,236.155228 249.649811,245.022675 
	C248.056107,245.110397 246.528030,245.194519 244.573273,245.302109 
	C244.573273,227.734512 244.573273,210.648010 244.573273,193.347275 
	C242.571091,193.187729 240.946320,193.058243 239.035583,192.905975 
	C239.035583,191.698425 239.035583,190.474808 239.035583,189.150909 
	C244.315140,189.150909 249.422745,189.150909 254.516617,189.150909 
	C254.744232,192.797226 254.744232,192.797226 249.649826,193.671326 
	C249.649826,201.902710 249.649826,210.201431 249.649811,219.000183 
z"/>
<path fill="#090909" opacity="1.000000" stroke="none" 
	d="
M144.107086,231.987778 
	C144.107086,236.614716 144.107086,240.744751 144.107086,245.036835 
	C142.313797,245.036835 140.894089,245.036835 139.111084,245.036835 
	C139.111084,227.706223 139.111084,210.615585 139.111084,193.907196 
	C137.189941,191.929092 131.749649,195.238190 133.540970,189.197632 
	C138.642517,189.197632 143.746674,189.197632 148.879807,189.197632 
	C150.749741,193.989120 146.992554,192.828003 144.107086,193.291412 
	C144.107086,205.980698 144.107086,218.735794 144.107086,231.987778 
z"/>
<path fill="#1F1F1F" opacity="1.000000" stroke="none" 
	d="
M187.695312,277.908020 
	C181.827362,277.343597 179.712387,272.635773 183.215530,267.567047 
	C185.086655,264.859680 185.361633,262.810120 184.158249,259.922028 
	C183.506760,258.358429 183.262070,256.122314 183.911316,254.671860 
	C184.475769,253.410904 186.528778,252.211838 187.973740,252.150085 
	C189.036179,252.104660 190.949432,253.826965 191.115845,254.962036 
	C191.407501,256.951385 191.299911,259.574799 190.194168,261.071747 
	C188.005219,264.035126 188.446381,266.407501 190.430634,269.124298 
	C191.381973,268.306885 192.332642,267.490051 193.862198,266.175842 
	C193.188736,269.178833 193.046967,271.618530 192.059418,273.646362 
	C191.259979,275.287933 189.442764,276.433899 187.695312,277.908020 
M188.849350,273.967804 
	C188.356094,271.556549 187.862854,269.145264 187.369614,266.734009 
	C186.837433,266.769928 186.305267,266.805817 185.773087,266.841736 
	C185.200867,268.833923 184.159012,270.827637 184.165665,272.817902 
	C184.175827,275.858673 185.589874,277.265686 188.849350,273.967804 
z"/>
<path fill="#3D57A2" opacity="1.000000" stroke="none" 
	d="
M239.944580,41.675632 
	C239.845490,42.019573 239.570511,42.177097 239.192032,42.591888 
	C237.693954,42.785934 236.335602,42.785934 234.977234,42.785934 
	C235.000427,43.097950 235.023605,43.409966 235.046783,43.721981 
	C233.050903,42.166512 231.055023,40.611042 228.184235,38.373718 
	C228.184235,42.459286 228.184235,45.056633 228.184235,47.873398 
	C224.398758,42.388458 220.782745,37.149071 217.485260,32.371185 
	C224.114807,36.702354 230.202011,28.947826 238.603668,28.909979 
	C235.353333,31.835346 233.065094,33.894817 229.996674,36.656456 
	C234.505676,37.454647 238.022095,37.904533 239.944580,41.675632 
z"/>
<path fill="#2A2A2A" opacity="1.000000" stroke="none" 
	d="
M257.050049,267.082581 
	C257.050049,271.041229 257.050049,274.522186 257.050049,278.003143 
	C256.486237,278.014313 255.922440,278.025452 255.358643,278.036591 
	C255.358643,270.863281 255.358643,263.690002 255.358643,256.152527 
	C255.034912,256.341400 255.336349,256.008759 255.592545,256.040527 
	C257.920410,256.329468 261.813599,256.039917 262.262024,257.138611 
	C263.511444,260.199921 263.488556,263.836426 263.671967,267.261627 
	C263.864899,270.864960 263.715179,274.486664 263.715179,278.100342 
	C262.969116,278.106659 262.223083,278.112946 261.477020,278.119263 
	C261.361206,276.341003 261.172211,274.563843 261.145111,272.784210 
	C261.092010,269.298492 261.339569,265.792480 261.028839,262.333862 
	C260.898438,260.882599 259.664917,259.530396 258.932922,258.133179 
	C258.305328,259.462860 257.428528,260.737549 257.119629,262.137543 
	C256.805267,263.562439 257.050079,265.110687 257.050049,267.082581 
z"/>
<path fill="#373737" opacity="1.000000" stroke="none" 
	d="
M77.992569,266.066345 
	C78.155495,263.449432 77.889503,261.135773 78.626625,259.205139 
	C79.149513,257.835571 81.116852,256.028229 82.277344,256.137512 
	C83.784988,256.279510 86.240021,258.026703 86.354256,259.261780 
	C86.825485,264.356781 86.833702,269.542999 86.384743,274.640442 
	C86.273727,275.900848 83.779068,277.882751 82.428719,277.843903 
	C81.044075,277.804108 78.975082,275.915985 78.534935,274.440338 
	C77.798271,271.970490 78.117638,269.185669 77.992569,266.066345 
M84.257736,265.593384 
	C83.996910,263.079041 83.736092,260.564728 83.475266,258.050385 
	C79.695908,262.523346 79.940491,272.783295 83.691383,276.842590 
	C83.914856,272.775299 84.086327,269.654602 84.257736,265.593384 
z"/>
<path fill="#2C2C2C" opacity="1.000000" stroke="none" 
	d="
M147.822205,274.589355 
	C148.070129,272.609741 148.196732,271.030823 148.323318,269.451874 
	C148.830612,269.417328 149.337891,269.382751 149.845184,269.348175 
	C149.845184,271.599060 150.278061,273.980225 149.656799,276.044098 
	C149.360138,277.029602 146.628448,278.295502 145.766708,277.872345 
	C144.280930,277.142761 142.567612,275.276062 142.412994,273.739288 
	C141.966843,269.304749 141.863892,264.745514 142.448212,260.344360 
	C142.664749,258.713379 145.167679,257.385895 146.627869,255.919983 
	C147.890793,257.355713 149.712524,258.605286 150.269287,260.276306 
	C150.905594,262.185974 150.416626,264.470612 150.416626,266.862366 
	C148.467758,267.004120 146.716034,267.131500 144.568542,267.287659 
	C144.698715,269.793152 144.698425,272.084839 145.056137,274.319214 
	C145.113083,274.674835 146.778900,274.772919 147.822205,274.589355 
M147.283127,258.367310 
	C143.356750,258.375031 144.811615,261.453491 144.698807,263.361481 
	C144.666046,263.915649 146.447357,264.577057 148.176376,265.691650 
	C148.010117,262.650146 147.912094,260.856903 147.283127,258.367310 
z"/>
<path fill="#2C2C2C" opacity="1.000000" stroke="none" 
	d="
M246.388794,272.868408 
	C246.198837,275.976135 245.396576,278.754456 242.138718,277.867584 
	C240.515076,277.425598 238.585800,274.915527 238.365356,273.145325 
	C237.836212,268.895966 237.834167,264.471313 238.463638,260.243103 
	C238.704346,258.626190 241.246704,257.351990 242.740204,255.921631 
	C243.971756,257.395874 245.742920,258.695404 246.291824,260.390686 
	C246.912262,262.306854 246.434860,264.578522 246.434860,266.873718 
	C244.520126,267.001282 242.902237,267.109070 240.593719,267.262848 
	C240.740265,270.129181 240.883301,272.927246 241.026352,275.725281 
	C241.679825,275.852325 242.333313,275.979370 242.986801,276.106415 
	C243.520706,273.922394 244.054626,271.738373 244.588531,269.554352 
	C244.871490,269.450226 245.154449,269.346100 245.437408,269.241974 
	C245.758850,270.322968 246.080292,271.403961 246.388794,272.868408 
M240.802414,259.931366 
	C240.424484,264.643646 240.424484,264.643646 244.015411,264.412109 
	C244.015411,262.949524 244.290146,261.389526 243.881149,260.036194 
	C243.715897,259.489410 242.056290,259.394257 240.802414,259.931366 
z"/>
<path fill="#0B0B0B" opacity="1.000000" stroke="none" 
	d="
M128.486969,279.868835 
	C130.010452,279.256012 131.169785,278.566467 132.329132,277.876953 
	C132.311646,277.452454 132.294174,277.027954 132.276688,276.603455 
	C127.185402,277.938416 125.814026,275.384460 125.817558,271.343140 
	C125.819733,268.844788 125.675652,266.344116 125.742828,263.848419 
	C125.932396,256.806610 126.687393,256.120453 134.066071,256.300476 
	C134.066071,263.409119 134.246994,270.537933 133.993805,277.651276 
	C133.856216,281.516602 130.481003,283.355621 127.286850,281.668365 
	C126.786079,281.403870 126.643341,280.461517 126.335052,279.832611 
	C126.930977,279.819122 127.526894,279.805634 128.486969,279.868835 
M129.516235,258.050476 
	C126.775482,262.738495 127.327438,272.489532 131.340866,275.598938 
	C131.607788,269.303467 133.568253,263.677429 129.516235,258.050476 
z"/>
<path fill="#0F0F0F" opacity="1.000000" stroke="none" 
	d="
M216.725189,269.998657 
	C216.851578,271.822266 217.254669,273.572510 216.606354,274.737823 
	C215.849487,276.098297 214.184052,277.771332 212.895432,277.786041 
	C211.628601,277.800507 209.328064,275.988342 209.235245,274.836365 
	C208.822723,269.716553 208.773987,264.522827 209.219894,259.410431 
	C209.328812,258.161682 211.723984,256.395966 213.221207,256.227234 
	C214.284286,256.107391 216.282150,258.086334 216.654373,259.456787 
	C217.240448,261.614532 216.810165,264.048340 216.810165,266.749786 
	C215.136475,266.890320 213.387909,267.037140 210.816406,267.253052 
	C211.144104,270.199921 211.469299,273.124268 211.794495,276.048615 
	C212.270142,276.040253 212.745789,276.031921 213.221436,276.023560 
	C214.326584,273.904572 215.431732,271.785583 216.725189,269.998657 
M214.675705,260.020172 
	C213.924103,259.379333 213.172501,258.738495 212.420898,258.097656 
	C211.782471,260.269257 211.144043,262.440826 210.405579,264.952637 
	C214.596130,264.530090 214.596130,264.530090 214.675705,260.020172 
z"/>
<path fill="#0C0C0C" opacity="1.000000" stroke="none" 
	d="
M115.605209,256.229126 
	C116.654602,258.328186 117.775894,260.252899 117.881126,262.231689 
	C118.151604,267.317444 117.971527,272.427155 117.971527,277.616302 
	C114.433281,277.303925 110.133064,279.795471 109.189354,273.959198 
	C108.580788,270.195587 109.011223,266.961548 112.939140,265.306458 
	C117.336761,263.453461 116.009621,260.866852 113.636871,256.632019 
	C112.568794,259.753784 111.910324,261.678345 111.158401,263.876038 
	C108.639580,258.532501 109.871590,256.414032 115.605209,256.229126 
M115.487503,274.671478 
	C115.487503,271.920563 115.487503,269.169617 115.487503,266.396851 
	C110.621590,266.759064 110.710526,270.278198 111.164078,273.536194 
	C111.266670,274.273163 113.603119,274.699127 115.487503,274.671478 
z"/>
<path fill="#0F0F0F" opacity="1.000000" stroke="none" 
	d="
M96.561432,279.827209 
	C96.096176,273.554047 95.235107,267.409515 94.416740,261.259277 
	C94.192047,259.570679 94.095154,257.865082 93.939621,256.167267 
	C94.480461,256.064087 95.021294,255.960922 95.562134,255.857758 
	C96.328796,260.459839 97.095467,265.061920 97.862129,269.664032 
	C98.141495,269.610596 98.420860,269.557190 98.700226,269.503784 
	C99.273186,264.990356 99.846153,260.476959 100.419113,255.963531 
	C100.952286,256.014740 101.485458,256.065918 102.018631,256.117096 
	C101.766464,258.871643 101.590042,261.635651 101.245811,264.378632 
	C100.598679,269.535309 100.026810,274.714996 98.987907,279.796051 
	C98.806686,280.682373 96.488571,281.131714 95.157402,281.782867 
	C95.498840,281.173126 95.840279,280.563385 96.561432,279.827209 
z"/>
<path fill="#313131" opacity="1.000000" stroke="none" 
	d="
M272.007019,265.114960 
	C271.413330,262.316742 270.278229,259.971985 270.390289,257.688477 
	C270.487030,255.716721 272.002167,253.814545 273.123352,251.374298 
	C274.504211,253.557816 275.613586,255.312027 276.813660,257.209656 
	C273.560333,259.960358 273.580322,273.922302 276.966034,276.976624 
	C273.258881,278.587097 272.262848,278.166809 272.047760,274.567902 
	C271.869568,271.586792 272.008545,268.586700 272.007019,265.114960 
z"/>
<path fill="#343434" opacity="1.000000" stroke="none" 
	d="
M227.054642,267.882141 
	C228.228607,263.897583 229.402557,259.912994 230.798721,255.174240 
	C231.387268,256.393555 231.983032,257.027924 231.915344,257.581085 
	C231.290924,262.684631 230.633743,267.787842 229.785843,272.857666 
	C229.585358,274.056427 228.640732,275.134338 228.010040,276.251831 
	C227.947784,276.362122 227.686264,276.359924 227.517227,276.409943 
	C227.547760,275.942657 227.578293,275.475372 227.507996,274.473358 
	C227.289688,271.919800 227.172165,269.900970 227.054642,267.882141 
z"/>
<path fill="#343434" opacity="1.000000" stroke="none" 
	d="
M67.054657,267.882172 
	C68.228790,263.897003 69.402924,259.911835 70.798752,255.174179 
	C71.387283,256.393555 71.983002,257.027893 71.915314,257.581085 
	C71.290901,262.684631 70.633766,267.787872 69.785858,272.857697 
	C69.585381,274.056427 68.640701,275.134338 68.010002,276.251831 
	C67.947762,276.362091 67.686256,276.359924 67.517242,276.409943 
	C67.547775,275.942657 67.578308,275.475372 67.508041,274.473328 
	C67.289711,271.919769 67.172188,269.900970 67.054657,267.882172 
z"/>
<path fill="#252525" opacity="1.000000" stroke="none" 
	d="
M161.941010,268.125946 
	C160.535629,266.005829 158.314346,264.001984 157.990143,261.727753 
	C157.743073,259.994507 159.469421,256.898315 161.083878,256.212921 
	C164.173416,254.901276 165.292999,257.732544 165.755020,260.332214 
	C165.962357,261.498871 165.790100,262.732971 165.790100,263.936432 
	C165.308823,264.044739 164.827560,264.153015 164.346283,264.261292 
	C163.687744,262.246796 163.029205,260.232300 162.351501,258.159180 
	C159.059891,260.529694 159.156448,261.751984 162.706482,266.753540 
	C162.376297,267.515839 162.158661,267.820892 161.941010,268.125946 
z"/>
<path fill="#252525" opacity="1.000000" stroke="none" 
	d="
M287.941040,268.125977 
	C286.535645,266.005859 284.314392,264.002075 283.990143,261.727814 
	C283.743042,259.994537 285.469330,256.898285 287.083771,256.212860 
	C290.173309,254.901260 291.292999,257.732422 291.755005,260.332123 
	C291.962372,261.498810 291.790100,262.732941 291.790100,263.936432 
	C291.308868,264.044739 290.827637,264.153015 290.346405,264.261292 
	C289.687805,262.246826 289.029205,260.232391 288.351471,258.159363 
	C285.059875,260.529541 285.156433,261.751923 288.706421,266.753479 
	C288.376251,267.515778 288.158630,267.820862 287.941040,268.125977 
z"/>
<path fill="#131313" opacity="1.000000" stroke="none" 
	d="
M162.062683,268.461548 
	C162.158661,267.820892 162.376297,267.515839 162.847519,267.081665 
	C164.090652,268.937408 165.876053,270.940582 165.830872,272.901581 
	C165.791031,274.630432 164.016281,277.321320 162.459198,277.798767 
	C159.473190,278.714355 157.999435,276.355927 157.887650,273.448639 
	C157.843170,272.291870 158.142227,271.121887 159.277740,269.844330 
	C159.974182,271.922729 160.670624,274.001129 161.567383,276.677368 
	C164.957672,273.634216 163.673126,271.219421 162.062683,268.461548 
z"/>
<path fill="#131313" opacity="1.000000" stroke="none" 
	d="
M288.062683,268.461609 
	C288.158630,267.820862 288.376251,267.515778 288.847412,267.081604 
	C290.090607,268.937317 291.876068,270.940491 291.830872,272.901459 
	C291.791046,274.630341 290.016357,277.321289 288.459229,277.798737 
	C285.473328,278.714386 283.999420,276.356049 283.887604,273.448730 
	C283.843109,272.291931 284.142151,271.121918 285.277740,269.844330 
	C285.974182,271.922729 286.670593,274.001099 287.567383,276.677368 
	C290.957672,273.634247 289.673187,271.219452 288.062683,268.461609 
z"/>
<path fill="#1F1F1F" opacity="1.000000" stroke="none" 
	d="
M67.049088,267.448914 
	C67.172188,269.900970 67.289711,271.919769 67.283524,274.248077 
	C66.623955,273.153137 65.838280,271.789978 65.598251,270.336670 
	C64.824532,265.652008 64.251846,260.934174 64.324615,256.068909 
	C66.789978,259.316833 66.431099,263.299225 67.049088,267.448914 
z"/>
<path fill="#1F1F1F" opacity="1.000000" stroke="none" 
	d="
M227.049072,267.448914 
	C227.172165,269.900970 227.289688,271.919800 227.283478,274.248138 
	C226.623901,273.153168 225.843079,271.789917 225.598495,270.336426 
	C224.885895,266.101776 224.376877,261.832458 223.821304,257.572388 
	C223.762085,257.118195 223.922119,256.635406 224.534958,256.032440 
	C226.790024,259.316833 226.431061,263.299225 227.049072,267.448914 
z"/>
<path fill="#FBFBFB" opacity="1.000000" stroke="none" 
	d="
M77.109268,228.999268 
	C77.090004,230.625763 77.088799,231.784637 77.048782,232.942169 
	C76.801498,240.095306 75.680763,241.113052 68.127884,240.787460 
	C68.127884,233.104034 68.127884,225.400391 68.127884,217.689224 
	C74.908676,216.376358 76.764709,217.791199 77.065804,224.559860 
	C77.124603,225.881607 77.097092,227.207199 77.109268,228.999268 
z"/>
<path fill="#FCFCFC" opacity="1.000000" stroke="none" 
	d="
M74.949448,194.963196 
	C75.453568,200.087540 76.015045,204.845703 75.842934,209.577148 
	C75.724884,212.822601 74.701462,213.048569 68.149048,212.768295 
	C68.149048,206.575897 68.149048,200.361725 68.149048,193.323730 
	C70.415649,193.760727 72.554855,194.173172 74.949448,194.963196 
z"/>
<path fill="#FDFDFD" opacity="1.000000" stroke="none" 
	d="
M170.027283,236.459747 
	C169.945496,224.352905 169.862732,212.698456 169.899384,201.044373 
	C169.905014,199.256241 169.984497,197.155945 170.896683,195.770966 
	C171.807922,194.387451 173.818207,192.958939 175.326447,192.980301 
	C176.537598,192.997452 177.796860,195.088120 178.868317,196.395126 
	C179.221512,196.825958 179.115768,197.683060 179.116531,198.345383 
	C179.131027,210.828812 179.291367,223.316483 178.965118,235.791336 
	C178.913818,237.752625 177.036514,240.714111 175.312027,241.356323 
	C172.137863,242.538376 170.745316,239.722214 170.027283,236.459747 
z"/>
<path fill="#EEEEEE" opacity="1.000000" stroke="none" 
	d="
M113.844147,228.806091 
	C110.973923,229.421417 108.219894,229.618484 104.679886,229.871811 
	C105.976067,220.561951 107.190155,211.841690 108.404243,203.121429 
	C108.806198,203.035995 109.208145,202.950562 109.610092,202.865143 
	C111.060181,211.372696 112.510262,219.880264 113.844147,228.806091 
z"/>
<path fill="#EDEDED" opacity="1.000000" stroke="none" 
	d="
M279.969788,202.855515 
	C281.378845,211.841934 282.753693,220.475662 284.178436,229.422729 
	C281.047089,229.422729 278.299469,229.422729 274.862061,229.422729 
	C275.664825,223.526367 276.407532,217.719391 277.262451,211.928970 
	C277.745453,208.657272 278.412170,205.412659 278.999878,202.156525 
	C279.029144,201.994522 279.094360,201.839005 279.142792,201.680466 
	C279.407074,201.954590 279.671356,202.228699 279.969788,202.855515 
z"/>
<path fill="#E6E6E6" opacity="1.000000" stroke="none" 
	d="
M188.617188,274.295044 
	C185.589874,277.265686 184.175827,275.858673 184.165665,272.817902 
	C184.159012,270.827637 185.200867,268.833923 185.773087,266.841736 
	C186.305267,266.805817 186.837433,266.769928 187.369614,266.734009 
	C187.862854,269.145264 188.356094,271.556549 188.617188,274.295044 
z"/>
<path fill="#F8F8F8" opacity="1.000000" stroke="none" 
	d="
M84.257767,266.063629 
	C84.086327,269.654602 83.914856,272.775299 83.691383,276.842590 
	C79.940491,272.783295 79.695908,262.523346 83.475266,258.050385 
	C83.736092,260.564728 83.996910,263.079041 84.257767,266.063629 
z"/>
<path fill="#E6E6E6" opacity="1.000000" stroke="none" 
	d="
M147.548599,258.715485 
	C147.912094,260.856903 148.010117,262.650146 148.176376,265.691650 
	C146.447357,264.577057 144.666046,263.915649 144.698807,263.361481 
	C144.811615,261.453491 143.356750,258.375031 147.548599,258.715485 
z"/>
<path fill="#E6E6E6" opacity="1.000000" stroke="none" 
	d="
M240.939575,259.512482 
	C242.056290,259.394257 243.715897,259.489410 243.881149,260.036194 
	C244.290146,261.389526 244.015411,262.949524 244.015411,264.412109 
	C240.424484,264.643646 240.424484,264.643646 240.939575,259.512482 
z"/>
<path fill="#F2F2F2" opacity="1.000000" stroke="none" 
	d="
M129.951569,258.063843 
	C133.568253,263.677429 131.607788,269.303467 131.340866,275.598938 
	C127.327438,272.489532 126.775482,262.738495 129.951569,258.063843 
z"/>
<path fill="#E6E6E6" opacity="1.000000" stroke="none" 
	d="
M214.722168,260.441071 
	C214.596130,264.530090 214.596130,264.530090 210.405579,264.952637 
	C211.144043,262.440826 211.782471,260.269257 212.420898,258.097656 
	C213.172501,258.738495 213.924103,259.379333 214.722168,260.441071 
z"/>
<path fill="#E6E6E6" opacity="1.000000" stroke="none" 
	d="
M115.199402,274.969879 
	C113.603119,274.699127 111.266670,274.273163 111.164078,273.536194 
	C110.710526,270.278198 110.621590,266.759064 115.487503,266.396851 
	C115.487503,269.169617 115.487503,271.920563 115.199402,274.969879 
z"/>
</svg>